<?xml version="1.0" encoding="UTF-8" standalone="no"?>
<!-- Created with Inkscape (http://www.inkscape.org/) -->

<svg
   width="113.89372mm"
   height="27.657536mm"
   viewBox="0 0 113.89374 27.657535"
   version="1.1"
   id="svg1"
   xmlns="http://www.w3.org/2000/svg"
   xmlns:svg="http://www.w3.org/2000/svg">
  <defs
     id="defs1" />
  <g
     id="layer1"
     transform="translate(-92.094423,-134.67124)">
    <path
       id="rect70"
       style="fill:#000000;stroke:#000000;stroke-width:2;stroke-linecap:butt;stroke-linejoin:miter;stroke-miterlimit:10;stroke-dasharray:none;stroke-opacity:1;paint-order:normal"
       d="m 107.64723,135.67124 9.25835,11.28665 v -11.28665 z m -7.25537,0.4098 -6.887951,5.83789 16.103921,19.00039 6.88795,-5.83841 z m -7.292064,13.94798 0.0217,11.28665 9.258864,-0.0176 z" />
    <path
       d="m 129.26876,155.22536 v -16.0754 h 3.16089 l 1.35467,3.38667 v 12.68873 z m 11.06312,0 -9.32463,-11.71788 1.4224,-4.35752 9.32463,11.71788 z m 0,0 -1.12889,-3.5673 v -12.5081 h 4.51556 v 16.0754 z m 11.55982,0.27093 q -1.94169,0 -3.40925,-0.72249 -1.46755,-0.74507 -2.30293,-2.05458 -0.8128,-1.33209 -0.8128,-3.048 0,-1.69334 0.79022,-3.00285 0.8128,-1.30951 2.21263,-2.05458 1.39982,-0.76764 3.16089,-0.76764 1.73849,0 3.07058,0.72249 1.33209,0.69991 2.07716,1.96426 0.76764,1.26436 0.76764,2.88996 0,0.33867 -0.0452,0.72249 -0.0226,0.36125 -0.13547,0.85796 l -10.02454,0.0677 v -2.70933 l 8.37636,-0.0677 -2.05458,1.19663 q 0,-0.90312 -0.22578,-1.46756 -0.2032,-0.58702 -0.63218,-0.88054 -0.42898,-0.29351 -1.08373,-0.29351 -0.67734,0 -1.17405,0.33867 -0.49671,0.33867 -0.76764,0.97085 -0.24836,0.63217 -0.24836,1.53529 0,0.92569 0.27094,1.55786 0.29351,0.6096 0.83537,0.92569 0.54187,0.31609 1.35467,0.31609 0.79023,0 1.37725,-0.24835 0.6096,-0.27094 1.10631,-0.83538 l 2.21262,2.19005 q -0.83537,0.94826 -2.00942,1.4224 -1.17405,0.47413 -2.68676,0.47413 z m 8.94082,-0.27093 -3.22863,-11.10828 h 4.19947 l 1.78365,8.08285 -1.24178,0.0226 2.32551,-8.10543 h 4.1769 l 2.34809,8.10543 -1.26436,-0.0226 1.8288,-8.08285 h 4.19947 l -3.22862,11.10828 h -4.22205 l -2.16747,-7.67646 h 0.90311 l -2.2352,7.67646 z m 17.90422,0 -3.22862,-11.10828 h 4.19947 l 1.78364,8.08285 -1.24178,0.0226 2.32552,-8.10543 h 4.17689 l 2.34809,8.10543 -1.26435,-0.0226 1.8288,-8.08285 h 4.19947 l -3.22863,11.10828 h -4.22205 l -2.16746,-7.67646 h 0.90311 l -2.23521,7.67646 z m 19.10081,0 -4.38009,-11.10828 h 4.69618 l 2.57387,9.4601 h -1.94169 l 2.52871,-9.4601 h 4.67361 l -4.35752,11.10828 z m -2.41582,4.74134 3.22862,-7.29263 2.98027,2.55129 -1.87395,4.74134 z"
       id="text2"
       style="font-weight:900;font-size:22.5778px;font-family:Outfit;-inkscape-font-specification:'Outfit Heavy';stroke-width:1.584;stroke-miterlimit:10"
       aria-label="Newwy" />
    <rect
       style="fill:#1a1a1a;stroke:none;stroke-width:1.584;stroke-linecap:butt;stroke-linejoin:miter;stroke-miterlimit:10;stroke-dasharray:none;stroke-opacity:1;paint-order:normal"
       id="rect82"
       width="43.415493"
       height="43.415497"
       x="82.468124"
       y="84.483688"
       ry="4.0135121" />
    <path
       id="rect70-0"
       style="fill:#ffffff;stroke:#ffffff;stroke-width:2;stroke-linecap:butt;stroke-linejoin:miter;stroke-miterlimit:10;stroke-dasharray:none;stroke-opacity:1;paint-order:normal"
       d="m 106.8231,93.362667 9.25835,11.286653 V 93.362667 Z m -7.255366,0.4098 -6.887951,5.83789 16.103917,19.000393 6.88795,-5.83841 z m -7.292064,13.947983 0.0217,11.28665 9.25886,-0.0176 z" />
    <rect
       style="fill:none;stroke:none;stroke-width:1.584;stroke-linecap:butt;stroke-linejoin:miter;stroke-miterlimit:10;stroke-dasharray:none;stroke-opacity:1;paint-order:normal"
       id="rect82-4"
       width="43.415493"
       height="43.415497"
       x="136.31392"
       y="84.483688"
       ry="4.0135121" />
    <path
       id="rect70-9"
       style="fill:#000000;stroke:#000000;stroke-width:2;stroke-linecap:butt;stroke-linejoin:miter;stroke-miterlimit:10;stroke-dasharray:none;stroke-opacity:1;paint-order:normal"
       d="m 160.6689,93.36267 9.25835,11.28665 V 93.36267 Z m -7.25537,0.4098 -6.88796,5.83789 16.10393,19.00039 6.88795,-5.83841 z m -7.29207,13.94798 0.0217,11.28665 9.25887,-0.0176 z" />
  </g>
</svg>
