<svg width="150" height="127" viewBox="0 0 150 127" fill="none" xmlns="http://www.w3.org/2000/svg">
<g id="Logo">
<path id="Union" fill-rule="evenodd" clip-rule="evenodd" d="M138.468 24.0988C153.844 32.5333 153.844 54.6215 138.468 63.056L99.5872 84.3849C94.257 87.3089 88.5002 87.7918 83.315 86.4242V104.57C83.315 121.458 65.2187 132.171 50.4127 124.049L11.5316 102.72C-3.84388 94.2853 -3.84386 72.1971 11.5316 63.7626L50.4128 42.4337C55.743 39.5096 61.4998 39.0268 66.685 40.3944V22.2485C66.685 5.36105 84.7813 -5.3522 99.5873 2.76989L138.468 24.0988ZM130.454 48.447L91.5732 69.776C87.8718 71.8065 83.3477 69.1282 83.3477 64.9063V22.2485C83.3477 18.0266 87.8718 15.3483 91.5733 17.3788L130.454 38.7078C134.298 40.8164 134.298 46.3384 130.454 48.447ZM19.5456 78.3715L58.4267 57.0426C62.1282 55.0121 66.6523 57.6904 66.6523 61.9123V104.57C66.6523 108.792 62.1282 111.47 58.4267 109.44L19.5456 88.1108C15.7017 86.0022 15.7017 80.4802 19.5456 78.3715Z" fill="url(#paint0_linear_5_48)"/>
</g>
<defs>
<linearGradient id="paint0_linear_5_48" x1="74.0002" y1="-2.16742" x2="74.0002" y2="131.134" gradientUnits="userSpaceOnUse">
<stop stop-color="#96D4FF"/>
<stop offset="0.5" stop-color="#30AAFF"/>
<stop offset="1" stop-color="#0083E0"/>
</linearGradient>
</defs>
</svg>
