<svg width="137" height="35" viewBox="0 0 137 35" fill="none" xmlns="http://www.w3.org/2000/svg">
<path fill-rule="evenodd" clip-rule="evenodd" d="M32.3093 8.62306C35.8969 10.5911 35.8969 15.745 32.3093 17.7131L23.237 22.6898C21.9933 23.3721 20.6501 23.4847 19.4402 23.1657V27.3997C19.4402 31.3401 15.2177 33.8398 11.763 31.9447L2.6907 26.9679C-0.896904 24.9999 -0.8969 19.846 2.69071 17.8779L11.763 12.9012C13.0067 12.2189 14.3499 12.1063 15.5598 12.4254V8.19132C15.5598 4.25091 19.7823 1.75115 23.237 3.64631L32.3093 8.62306ZM30.4394 14.3043L21.3671 19.2811C20.5034 19.7548 19.4478 19.1299 19.4478 18.1448V8.19132C19.4478 7.20621 20.5034 6.58128 21.3671 7.05506L30.4394 12.0318C31.3363 12.5238 31.3363 13.8123 30.4394 14.3043ZM4.56064 21.2867L13.6329 16.3099C14.4966 15.8362 15.5522 16.4611 15.5522 17.4462V27.3997C15.5522 28.3848 14.4966 29.0097 13.6329 28.5359L4.56064 23.5592C3.66374 23.0672 3.66373 21.7787 4.56064 21.2867Z" fill="url(#paint0_linear_3_20)"/>
<path d="M44.904 28V8.232H47.984L49.3 12.18V28H44.904ZM58.54 28L46.892 13.076L47.984 8.232L59.632 23.156L58.54 28ZM58.54 28L57.364 24.052V8.232H61.76V28H58.54ZM71.9039 28.308C70.4292 28.308 69.1132 28.0093 67.9559 27.412C66.8172 26.796 65.9212 25.9467 65.2679 24.864C64.6145 23.7813 64.2879 22.5587 64.2879 21.196C64.2879 19.8333 64.6052 18.62 65.2399 17.556C65.8932 16.4733 66.7705 15.624 67.8719 15.008C68.9732 14.392 70.2145 14.084 71.5959 14.084C72.9399 14.084 74.1252 14.3733 75.1519 14.952C76.1785 15.5307 76.9812 16.3333 77.5599 17.36C78.1572 18.3867 78.4559 19.5627 78.4559 20.888C78.4559 21.1307 78.4372 21.392 78.3999 21.672C78.3812 21.9333 78.3345 22.2413 78.2599 22.596L66.5279 22.624V19.684L76.4399 19.656L74.5919 20.888C74.5732 20.104 74.4519 19.46 74.2279 18.956C74.0039 18.4333 73.6679 18.0413 73.2199 17.78C72.7905 17.5 72.2585 17.36 71.6239 17.36C70.9519 17.36 70.3639 17.5187 69.8599 17.836C69.3745 18.1347 68.9919 18.564 68.7119 19.124C68.4505 19.684 68.3199 20.3653 68.3199 21.168C68.3199 21.9707 68.4599 22.6613 68.7399 23.24C69.0385 23.8 69.4492 24.2387 69.9719 24.556C70.5132 24.8547 71.1479 25.004 71.8759 25.004C72.5479 25.004 73.1545 24.892 73.6959 24.668C74.2372 24.4253 74.7132 24.0707 75.1239 23.604L77.4759 25.956C76.8039 26.74 75.9919 27.328 75.0399 27.72C74.0879 28.112 73.0425 28.308 71.9039 28.308ZM83.6917 28L78.9877 14.392H83.1877L86.0997 24.276L84.8677 24.304L88.0877 14.392H91.5597L94.8077 24.304L93.5477 24.276L96.4877 14.392H100.688L95.9837 28H92.4837L89.3197 18.592H90.3837L87.1637 28H83.6917ZM105.047 28L100.343 14.392H104.543L107.455 24.276L106.223 24.304L109.443 14.392H112.915L116.163 24.304L114.903 24.276L117.843 14.392H122.043L117.339 28H113.839L110.675 18.592H111.739L108.519 28H105.047ZM127.462 28.056L121.862 14.392H126.482L130.038 25.228H128.33L131.97 14.392H136.59L130.766 28.056H127.462ZM123.962 33.74L128.05 24.92L130.766 28.056L128.358 33.74H123.962Z" fill="black"/>
<defs>
<linearGradient id="paint0_linear_3_20" x1="17.2667" y1="2.49427" x2="17.2667" y2="33.598" gradientUnits="userSpaceOnUse">
<stop stop-color="#96D4FF"/>
<stop offset="0.5" stop-color="#30AAFF"/>
<stop offset="1" stop-color="#0083E0"/>
</linearGradient>
</defs>
</svg>
